<svg width="60" height="60" viewBox="0 0 60 60" fill="none" xmlns="http://www.w3.org/2000/svg">
<g clip-path="url(#clip0_201_14)">
<path d="M47.5 0H12.5C5.5975 0 0 5.5975 0 12.5V47.5C0 54.4025 5.5975 60 12.5 60H47.5C54.405 60 60 54.4025 60 47.5V12.5C60 5.5975 54.405 0 47.5 0ZM20 47.5H12.5V20H20V47.5ZM16.25 16.83C13.835 16.83 11.875 14.855 11.875 12.42C11.875 9.985 13.835 8.01 16.25 8.01C18.665 8.01 20.625 9.985 20.625 12.42C20.625 14.855 18.6675 16.83 16.25 16.83ZM50 47.5H42.5V33.49C42.5 25.07 32.5 25.7075 32.5 33.49V47.5H25V20H32.5V24.4125C35.99 17.9475 50 17.47 50 30.6025V47.5Z" fill="#544277"/>
</g>
<defs>
<clipPath id="clip0_201_14">
<rect width="60" height="60" fill="white"/>
</clipPath>
</defs>
</svg>
