<svg width="146" height="75" viewBox="0 0 146 75" fill="none" xmlns="http://www.w3.org/2000/svg">
<path d="M11.1365 32.3341H13.7999V33H8.473V32.3341H10.4706V16.4865C9.76034 15.5099 9.09447 15.0216 8.473 15.0216V14.3557H14.6989L24.0543 25.4424V15.0216H21.3908V14.3557H27.0507V15.0216H24.7202V33.3329H24.0543L11.1365 17.3188V32.3341ZM42.3542 33H34.0309V32.3341H35.6955V15.0216H34.0309V14.3557H42.3542V15.0216H40.6895V32.3341H42.3542V33ZM66.1616 21.7801H65.4957C65.4957 20.0045 64.9297 18.362 63.7978 16.8527C62.6658 15.3434 61.0455 14.5888 58.9369 14.5888C57.7606 14.5888 56.784 15.2768 56.0071 16.6529C55.2525 18.0291 54.8751 20.3818 54.8751 23.7111C54.8751 27.0405 55.2525 29.3932 56.0071 30.7693C56.784 32.1455 57.9825 32.8335 59.6028 32.8335C61.2453 32.8335 62.6214 32.323 63.7312 31.302C64.8631 30.281 65.5623 28.8383 65.8287 26.9739H66.4945C66.1838 29.1713 65.4069 30.8137 64.164 31.9013C62.9432 32.9667 61.4783 33.4994 59.7693 33.4994C56.4621 33.4994 53.9207 32.7115 52.1451 31.1356C50.3916 29.5375 49.5149 27.0516 49.5149 23.6779C49.5149 20.2819 50.3694 17.8071 52.0785 16.2534C53.8097 14.6997 56.0959 13.9229 58.9369 13.9229C60.4684 13.9229 61.9555 14.3335 63.3982 15.1547C63.8643 15.4433 64.2417 15.5876 64.5302 15.5876C64.8409 15.5876 65.0851 15.4544 65.2627 15.188C65.4402 14.8995 65.529 14.6221 65.529 14.3557H66.1616V21.7801ZM90.4515 24.8764C90.4515 30.6251 88.0321 33.4994 83.1935 33.4994C80.5078 33.4994 78.4103 32.8113 76.901 31.4352C75.3917 30.0591 74.6371 27.9838 74.6371 25.2093V15.0216H72.9724V14.3557H81.6287V15.0216H79.964V25.5756C79.964 30.2145 81.5177 32.5339 84.6251 32.5339C85.8903 32.5339 87.0333 31.9124 88.0543 30.6695C89.0975 29.4043 89.6191 27.6953 89.6191 25.5423V15.0216H86.9889V14.3557H92.1161V15.0216H90.4515V24.8764Z" fill="black"/>
<rect x="0.574024" y="0.574268" width="99.4209" height="45.6923" stroke="black" stroke-width="1.14805"/>
<path d="M69.1603 64.1595C69.1875 64.0096 69.3033 63.9347 69.5077 63.9347C69.7257 63.9347 69.8347 63.996 69.8347 64.1186L69.6712 66.9591C69.6712 67.0681 69.5622 67.1226 69.3442 67.1226C69.1399 67.1226 69.0377 67.0681 69.0377 66.9591V66.4687C67.7026 67 66.3947 67.2657 65.1141 67.2657C62.7709 67.2657 60.8227 66.6798 59.2696 65.5082C57.7166 64.323 56.94 62.6882 56.94 60.6038C56.94 59.0371 57.3487 57.6679 58.1661 56.4963C58.9835 55.311 60.0189 54.4391 61.2723 53.8806C62.5257 53.3084 63.8063 53.0223 65.1141 53.0223C66.4356 53.0223 67.614 53.2879 68.6494 53.8193V53.3493C68.6494 53.2266 68.7448 53.1653 68.9355 53.1653C69.1399 53.1653 69.242 53.2266 69.242 53.3493C69.242 54.4528 69.3102 55.4609 69.4464 56.3737C69.4736 56.5099 69.3715 56.578 69.1399 56.578C68.9083 56.578 68.7857 56.5099 68.772 56.3737L68.6085 55.4132C67.5459 54.4323 66.2721 53.9419 64.7872 53.9419C63.3158 53.9419 62.0625 54.4868 61.0271 55.5767C59.9917 56.653 59.474 58.1856 59.474 60.1746C59.474 62.15 60.0189 63.6759 61.1088 64.7521C62.2123 65.8148 63.5883 66.3461 65.2367 66.3461C66.5718 66.3461 67.8388 65.9374 69.0377 65.12L69.1603 64.1595ZM81.5964 57.1298L83.2108 57.1706C83.3607 57.1706 83.4901 57.1706 83.5991 57.1706L85.7243 57.1298C85.8197 57.1298 85.8674 57.232 85.8674 57.4363C85.8674 57.627 85.8129 57.7224 85.7039 57.7224H84.7639C84.5868 57.7224 84.4982 57.8314 84.4982 58.0494V64.8134C84.4982 65.8488 84.6345 66.3665 84.9069 66.3665H85.9287C86.0377 66.3665 86.0922 66.4755 86.0922 66.6935C86.0922 66.8978 86.0513 67 85.9696 67L83.5991 66.9796L81.5556 67.0409C81.4602 67.0409 81.4125 66.9387 81.4125 66.7343C81.4125 66.53 81.4534 66.4278 81.5351 66.4278H82.4547C82.6046 66.4278 82.6931 66.4006 82.7204 66.3461C82.7476 66.278 82.7612 66.1077 82.7612 65.8352V62.5042H77.8159V64.8134C77.8159 65.8488 77.9521 66.3665 78.2246 66.3665H79.2464C79.3554 66.3665 79.4099 66.4755 79.4099 66.6935C79.4099 66.8978 79.369 67 79.2872 67L76.9168 66.9796L74.8732 67.0409C74.7779 67.0409 74.7302 66.9387 74.7302 66.7343C74.7302 66.53 74.7711 66.4278 74.8528 66.4278H75.7724C75.9222 66.4278 76.0108 66.4006 76.038 66.3461C76.0653 66.278 76.0789 66.1077 76.0789 65.8352V59.3981C76.0789 58.3082 75.9427 57.7633 75.6702 57.7633H74.9345C74.7711 57.7633 74.6893 57.6611 74.6893 57.4567C74.6893 57.2388 74.7642 57.1298 74.9141 57.1298L76.5285 57.1706C76.6783 57.1706 76.8078 57.1706 76.9168 57.1706L79.042 57.1298C79.1374 57.1298 79.1851 57.232 79.1851 57.4363C79.1851 57.627 79.1306 57.7224 79.0216 57.7224H78.0816C77.9045 57.7224 77.8159 57.8314 77.8159 58.0494V61.7277H82.7612V59.3981C82.7612 58.3082 82.625 57.7633 82.3525 57.7633H81.6169C81.4534 57.7633 81.3716 57.6611 81.3716 57.4567C81.3716 57.2388 81.4466 57.1298 81.5964 57.1298ZM90.931 57.1298L92.5454 57.1706C92.6953 57.1706 92.8247 57.1706 92.9337 57.1706L95.0589 57.1298C95.1543 57.1298 95.202 57.232 95.202 57.4363C95.202 57.627 95.1475 57.7224 95.0385 57.7224H94.0985C93.9214 57.7224 93.8328 57.8314 93.8328 58.0494V64.8134C93.8328 65.8488 93.9691 66.3665 94.2415 66.3665H95.2633C95.3723 66.3665 95.4268 66.4755 95.4268 66.6935C95.4268 66.8978 95.3859 67 95.3042 67L92.9337 66.9796L90.8902 67.0409C90.7948 67.0409 90.7471 66.9387 90.7471 66.7343C90.7471 66.53 90.788 66.4278 90.8697 66.4278H91.7893C91.9392 66.4278 92.0277 66.4006 92.055 66.3461C92.0822 66.278 92.0958 66.1077 92.0958 65.8352V59.3981C92.0958 58.3082 91.9596 57.7633 91.6871 57.7633H90.9515C90.788 57.7633 90.7062 57.6611 90.7062 57.4567C90.7062 57.2388 90.7812 57.1298 90.931 57.1298ZM102.408 67L100.222 67.0409C100.126 67.0409 100.079 66.9387 100.079 66.7343C100.079 66.53 100.113 66.4278 100.181 66.4278H101.182C101.346 66.4278 101.427 66.312 101.427 66.0804V59.3777C101.427 58.3014 101.278 57.7633 100.978 57.7633H100.263C100.113 57.7633 100.038 57.6611 100.038 57.4567C100.038 57.2388 100.099 57.1298 100.222 57.1298C101.434 57.157 102.674 57.1706 103.941 57.1706C105.208 57.1706 106.189 57.4431 106.884 57.9881C107.592 58.5194 107.946 59.1801 107.946 59.9703C107.946 60.7468 107.667 61.3735 107.108 61.8503C106.55 62.3271 105.875 62.5996 105.085 62.6677C105.48 62.9402 105.991 63.4851 106.618 64.3025C106.85 64.6159 107.211 64.9769 107.701 65.3856C108.191 65.7807 108.743 66.1349 109.356 66.4482C109.084 66.9932 108.668 67.2657 108.11 67.2657C107.551 67.2657 107.061 67.0613 106.638 66.6526C106.216 66.2439 105.889 65.7943 105.657 65.3039C105.426 64.7998 105.167 64.2821 104.881 63.7508C104.608 63.2195 104.35 62.8721 104.104 62.7086L103.164 62.6473V65.0178C103.164 65.9169 103.301 66.3665 103.573 66.3665H104.431C104.54 66.3665 104.595 66.4755 104.595 66.6935C104.595 66.8978 104.561 67 104.493 67H102.408ZM103.573 57.7837C103.301 57.7837 103.164 58.0085 103.164 58.4581V61.8503C103.355 61.8912 103.546 61.9116 103.737 61.9116C104.35 61.9116 104.881 61.7413 105.331 61.4007C105.78 61.0602 106.005 60.597 106.005 60.0111C106.005 59.4253 105.801 58.9076 105.392 58.4581C104.997 58.0085 104.391 57.7837 103.573 57.7837ZM113.546 57.1298L115.16 57.1706C115.31 57.1706 115.439 57.1706 115.548 57.1706L117.673 57.1298C117.769 57.1298 117.816 57.232 117.816 57.4363C117.816 57.627 117.762 57.7224 117.653 57.7224H116.713C116.536 57.7224 116.447 57.8314 116.447 58.0494V64.8134C116.447 65.8488 116.584 66.3665 116.856 66.3665H117.878C117.987 66.3665 118.041 66.4755 118.041 66.6935C118.041 66.8978 118 67 117.919 67L115.548 66.9796L113.505 67.0409C113.409 67.0409 113.362 66.9387 113.362 66.7343C113.362 66.53 113.402 66.4278 113.484 66.4278H114.404C114.554 66.4278 114.642 66.4006 114.669 66.3461C114.697 66.278 114.71 66.1077 114.71 65.8352V59.3981C114.71 58.3082 114.574 57.7633 114.302 57.7633H113.566C113.402 57.7633 113.321 57.6611 113.321 57.4567C113.321 57.2388 113.396 57.1298 113.546 57.1298ZM122.898 67L121.283 67.0409C121.188 67.0409 121.14 66.9523 121.14 66.7752C121.14 66.5981 121.188 66.5096 121.283 66.5096H121.937C122.087 66.5096 122.196 66.4482 122.264 66.3256C122.577 65.8079 123.204 64.432 124.144 62.1977C125.084 59.9498 125.758 58.2469 126.167 57.0889C126.222 56.9663 126.351 56.905 126.555 56.905C126.773 56.905 126.91 56.9731 126.964 57.1093C127.128 57.7905 127.604 59.0779 128.395 60.9716C129.198 62.8653 129.9 64.4456 130.499 65.7126C130.663 66.0395 130.813 66.2507 130.949 66.3461C131.085 66.4414 131.296 66.4891 131.582 66.4891C131.664 66.4891 131.705 66.5845 131.705 66.7752C131.705 66.9523 131.671 67.0409 131.603 67.0409L129.641 67L127.434 67.0409C127.352 67.0409 127.312 66.9523 127.312 66.7752C127.312 66.5981 127.352 66.5096 127.434 66.5096H128.415C128.565 66.5096 128.64 66.4482 128.64 66.3256C128.64 66.312 128.258 65.263 127.495 63.1786H124.655C123.987 64.8271 123.654 65.7943 123.654 66.0804C123.654 66.3529 123.735 66.4891 123.899 66.4891H124.737C124.846 66.4891 124.9 66.5845 124.9 66.7752C124.9 66.9523 124.859 67.0409 124.778 67.0409L122.898 67ZM127.23 62.4838C127.189 62.3612 126.835 61.3258 126.167 59.3777H126.106C125.779 60.3177 125.391 61.3531 124.941 62.4838H127.23ZM141.16 67.2657C139.498 67.2657 138.122 66.8229 137.032 65.9374C135.942 65.0518 135.397 63.8393 135.397 62.2999C135.397 60.7468 135.983 59.4594 137.155 58.4376C138.326 57.4159 139.723 56.905 141.344 56.905C142.134 56.905 142.911 57.1025 143.674 57.4976V57.1502C143.674 57.0548 143.755 57.0072 143.919 57.0072C144.096 57.0072 144.184 57.0548 144.184 57.1502C144.184 58.0085 144.253 58.9008 144.389 59.8272C144.402 59.8681 144.375 59.909 144.307 59.9498C144.253 59.9771 144.164 59.9907 144.041 59.9907C143.919 59.9907 143.844 59.9362 143.817 59.8272L143.653 58.7442C142.89 58.0221 142.012 57.6611 141.017 57.6611C140.036 57.6611 139.191 58.0834 138.483 58.9281C137.788 59.7727 137.441 60.8286 137.441 62.0955C137.441 63.3625 137.809 64.4183 138.544 65.263C139.28 66.094 140.145 66.5096 141.14 66.5096C142.134 66.5096 143.074 66.2166 143.96 65.6308L144.062 64.466C144.062 64.357 144.157 64.3025 144.348 64.3025C144.539 64.3025 144.634 64.3502 144.634 64.4456L144.511 67.0409C144.511 67.1226 144.416 67.1635 144.225 67.1635C144.048 67.1635 143.96 67.1226 143.96 67.0409V66.6935C143.02 67.0749 142.086 67.2657 141.16 67.2657Z" fill="black"/>
</svg>
