<svg width="60" height="60" viewBox="0 0 60 60" fill="none" xmlns="http://www.w3.org/2000/svg">
<g clip-path="url(#clip0_703_10)">
<mask id="mask0_703_10" style="mask-type:luminance" maskUnits="userSpaceOnUse" x="0" y="0" width="60" height="60">
<path d="M60 0H0V60H60V0Z" fill="white"/>
</mask>
<g mask="url(#mask0_703_10)">
<path d="M31.6128 32.2C31.1326 32.552 30.5663 32.7278 30.0001 32.7278C29.4335 32.7278 28.8674 32.552 28.3872 32.2L5.45453 15.3828L0.000181818 11.383L0 50.0007C0.000181818 51.5069 1.22109 52.7279 2.72726 52.7279L57.2727 52.7278C58.7791 52.7278 60 51.5067 60 50.0007V11.3828L54.5453 15.3828L31.6128 32.2Z" fill="#FAFAFA"/>
<path d="M30 26.6188L56.3792 7.27362L3.62012 7.27344L30 26.6188Z" fill="#FAFAFA"/>
</g>
</g>
<defs>
<clipPath id="clip0_703_10">
<rect width="60" height="60" fill="white"/>
</clipPath>
</defs>
</svg>
